 <svg width="600" height="316" viewBox="0 0 1490 316" fill="none" xmlns="http://www.w3.org/2000/svg">
            <g id="Anime">
            <g id="Group 1">
            <path id="A" class="st1 letter" d="M214.72 213.12H130.72L114.16 252H82L157.6 84H188.32L264.16 252H231.52L214.72 213.12ZM204.4 188.64L172.72 115.2L141.28 188.64H204.4Z" fill="black"/>
            <path id="N" class="st1 letter" d="M579.28 84V252H553.6L460.96 138.24V252H430V84H455.68L548.32 197.76V84H579.28Z" fill="black"/>
            <path id="I" class="st1 letter" d="M745 84H776.2V252H745V84Z" fill="black"/>
            <path id="M" class="st1 letter" d="M1096.32 252L1096.08 140.64L1040.88 232.8H1026.96L971.76 142.08V252H942V84H967.68L1034.4 195.36L1099.92 84H1125.6L1125.84 252H1096.32Z" fill="black"/>
            <path id="E" class="st1 letter" d="M1417 225.84V252H1291V84H1413.64V110.16H1322.2V153.84H1403.32V179.52H1322.2V225.84H1417Z" fill="black"/>
            </g>
            <g id="Group 2">
            <path id="E_2" class="st2" d="M1429 216.857V268H1279V68H1425V119.143H1380.57H1336.14V141.143H1412.71V191.714H1336.14V216.857H1429Z" fill="black"/>
            <path id="M_2" class="st2" d="M1087.83 268L1087.55 175.429L1041.79 245.143H1025.21L979.452 177.143V268H924V68H974.591L1034.07 170.571L1092.12 68H1142.71L1143 268H1087.83Z" fill="black"/>
            <path id="I_2" class="st2" d="M732 68H789V268H732V68Z" fill="black"/>
            <path id="N_2" class="st2" d="M595 68V268H544.551L474.709 172.571V268H418V68H468.449L538.291 163.429V68H595Z" fill="black"/>
            <path id="A_2" class="st2" d="M203.63 220.246H141.333L121.165 267.596H62L154.068 63H191.48L283.84 267.596H224.09L203.63 220.246ZM191.062 180.434L172.482 130.996L154.193 180.434H191.062Z" fill="black"/>
            </g>
            <g id="Group 3">
            <path id="E_3" class="st3" d="M1465 210.309V286H1243V20H1459.08V115.691H1393.33H1367.57V128.251H1440.9V203.097H1367.57V210.309H1465Z" fill="black"/>
            <path id="M_3" class="st3" d="M1063.64 285L1063.22 238.92L1045.73 281.4H1021.27L1003.78 241.44V285H872V21H996.617L1034.34 121.78L1079.96 21H1194.58L1195 285H1063.64Z" fill="black"/>
            <path id="I_3" class="st3" d="M706 27H815V289H706L706 27Z" fill="black"/>
            <path id="N_3" class="st3" d="M630 28V288H529.6L492.136 224.4V288H383V28H483.4L520.864 111.6V28H630Z" fill="black"/>
            <path id="A_3" class="st3" d="M194.254 239.357H150.568L133.478 293H24L147.676 28H197.931L322 293H211.737L194.254 239.357ZM177.371 175.845L172.411 149.395L167.844 175.845H177.371Z" fill="black"/>
            </g>
            <g id="Group 4">
            <path id="E_4" class="st4" d="M1490 203.235V316H1228V0H1482.75V121.276L1402.18 122.276L1370.63 121.276V122.669H1460.47V204.397H1370.63V203.235H1490Z" fill="black"/>
            <path id="M_4" class="st4" d="M1050.54 315L1050.02 288.447L1038.53 310.582H1028.47L1016.98 291.54V315H845V1H1008.17L1034.54 84.6845L1070.61 1H1221.48L1222 315H1050.54Z" fill="black"/>
            <path id="I_4" class="st4" d="M685 1H836V315H685V1Z" fill="black"/>
            <path id="N_4" class="st4" d="M655 2V314H524.276L509.229 277.68V314H358V2H498.724L513.771 72.32V2H655Z" fill="black"/>
            <path id="A_4" class="st4" d="M187.677 251.855H156.955L137.112 314H0L143.597 7H201.947L346 314H207.977L187.677 251.855ZM175.075 168.277L172.316 157.635L170.013 168.277H175.075Z" fill="black"/>
            </g>
            <g id="Group 5">
            <path id="E_5" class="st5" d="M1490 203.235V316H1228V0H1482.75V121.276L1402.18 122.276L1370.63 121.276V122.669H1460.47V204.397H1370.63V203.235H1490Z" fill="black"/>
            <path id="M_5" class="st5" d="M1050.54 315L1050.02 288.447L1038.53 310.582H1028.47L1016.98 291.54V315H845V1H1008.17L1034.54 84.6845L1070.61 1H1221.48L1222 315H1050.54Z" fill="black"/>
            <path id="I_5" class="st5" d="M685 1H836V315H685V1Z" fill="black"/>
            <path id="N_5" class="st5" d="M655 2V314H524.276L509.229 277.68V314H358V2H498.724L513.771 72.32V2H655Z" fill="black"/>
            <path id="A_5" class="st5" d="M187.677 251.855H156.955L137.112 314H0L143.597 7H201.947L346 314H207.977L187.677 251.855ZM175.075 168.277L172.316 157.635L170.013 168.277H175.075Z" fill="black"/>
            </g>
            </g>
            </svg>